<svg width="80" height="80" viewBox="0 0 80 80" fill="none" xmlns="http://www.w3.org/2000/svg">
<path d="M43.6426 0.000955245C44.198 0.0125734 44.7517 0.0717271 45.2969 0.17869C46.948 0.50265 48.4462 1.39972 51.4424 3.19334L71.5615 15.2373C75.2153 17.4246 77.0429 18.5183 78.2129 20.1611C78.5976 20.7014 78.9255 21.2801 79.1914 21.8877C80 23.7353 80 25.8648 80 30.123V53.1318C80 58.3611 80.0002 60.9764 78.8623 63.1054C78.4902 63.8016 78.0339 64.4493 77.5039 65.0342C75.8829 66.823 73.4212 67.7045 68.498 69.4668L46.1611 77.4619C42.4376 78.7947 40.5752 79.4616 38.6904 79.3808C38.0697 79.3542 37.4527 79.2674 36.8486 79.122C35.0145 78.6807 33.4079 77.5271 30.1953 75.2207L7.23145 58.7334C4.08713 56.4759 2.51412 55.3476 1.51758 53.789C1.18915 53.2754 0.910294 52.7314 0.68457 52.165C-0.000286079 50.4466 3.39942e-07 48.5111 5.37251e-10 44.6406V15.9902C-2.68622e-07 12.9114 2.3043e-06 11.3716 0.261719 10.2715C1.45311 5.26394 6.36886 2.07626 11.4268 3.03123C12.5379 3.24107 13.9439 3.8689 16.7549 5.12498C17.5492 5.4799 17.9464 5.65721 18.3447 5.7949C20.0878 6.39748 21.9671 6.48729 23.7598 6.05369C24.1694 5.9546 24.5818 5.81562 25.4063 5.53806L36.9961 1.6367C40.3056 0.522524 41.9604 -0.0341837 43.6426 0.000955245ZM72.8613 27.1504C70.7828 25.7137 67.8207 26.8314 61.8975 29.0674L44.7891 35.5254C41.773 36.6639 40.2654 37.2338 39.4102 38.4707C38.555 39.7076 38.5547 41.3193 38.5547 44.5429V59.5322C38.5547 65.7944 38.5549 68.9253 40.6104 70.3642C42.6659 71.8032 45.608 70.7321 51.4922 68.5888L68.6006 62.3574C71.6654 61.2411 73.1981 60.6829 74.0693 59.4385C74.9406 58.1939 74.9404 56.5626 74.9404 53.3008V38.0849C74.9404 31.7535 74.9399 28.5874 72.8613 27.1504Z" fill="#FEFEFE"/>
</svg>
