<svg width="80" height="80" viewBox="0 0 80 80" fill="none" xmlns="http://www.w3.org/2000/svg">
<path d="M43.6426 0.00156277C44.198 0.0131811 44.7517 0.0733068 45.2969 0.180274C46.948 0.504237 48.4462 1.40127 51.4424 3.19492L71.5615 15.2389C75.2154 17.4262 77.0429 18.5198 78.2129 20.1627C78.5976 20.703 78.9255 21.2816 79.1914 21.8893C80.0001 23.7369 80 25.8662 80 30.1246V53.1334C80 58.3624 80 60.977 78.8623 63.1061C78.4902 63.8023 78.034 64.4508 77.5039 65.0357C75.8829 66.8245 73.421 67.7052 68.498 69.4674L46.1611 77.4635C42.4376 78.7963 40.5752 79.4622 38.6904 79.3814C38.0697 79.3548 37.4527 79.269 36.8486 79.1236C35.0145 78.6823 33.4079 77.5287 30.1953 75.2223L7.23145 58.735C4.08707 56.4775 2.51411 55.3482 1.51758 53.7896C1.1893 53.2762 0.910217 52.7328 0.68457 52.1666C-0.000320584 50.4481 3.388e-07 48.5121 3.99249e-10 44.6412V15.9908C-2.68142e-07 12.9125 5.75501e-05 11.3731 0.261719 10.273C1.45311 5.26551 6.36884 2.07782 11.4268 3.03281C12.5379 3.24266 13.9439 3.87047 16.7549 5.12656C17.5492 5.4815 17.9464 5.65879 18.3447 5.79648C20.0878 6.39906 21.9672 6.48886 23.7598 6.05527C24.1694 5.95619 24.5819 5.81719 25.4063 5.53965L36.9961 1.63828C40.3056 0.5241 41.9604 -0.0335724 43.6426 0.00156277ZM72.8613 27.152C70.7828 25.7152 67.8208 26.833 61.8975 29.0689L44.7891 35.527C41.773 36.6655 40.2654 37.2353 39.4102 38.4723C38.555 39.7092 38.5547 41.3208 38.5547 44.5445V59.5338C38.5547 65.796 38.5549 68.9269 40.6104 70.3658C42.6659 71.8047 45.608 70.7337 51.4922 68.5904L68.6006 62.359C71.6655 61.2426 73.1981 60.6836 74.0693 59.4391C74.9402 58.1946 74.9404 56.5637 74.9404 53.3023V38.0865C74.9404 31.755 74.9399 28.589 72.8613 27.152Z" fill="#1A1C20"/>
</svg>
